<svg width="80" height="52" viewBox="0 0 80 52" fill="none" xmlns="http://www.w3.org/2000/svg">
<path d="M79.6713 36.9851L40.2101 0.312215C40.1 0.210463 39.9288 0.210463 39.8187 0.312215L0.339196 36.9851C0.186317 37.1287 0.241353 37.3801 0.437039 37.4519L40.0144 51.3501L55.0088 46.0949L54.0915 44.3172L53.1926 42.6234L50.2573 36.9851C50.1839 36.8474 50.3674 36.7157 50.4775 36.8235L55.7487 41.7255L57.3387 43.198L58.947 44.7063L65.0438 42.5695L64.1754 40.8756L63.2398 39.0979L57.2469 27.6178C57.1736 27.4802 57.357 27.3485 57.4671 27.4562L68.1381 37.3741L69.832 38.9483L71.3363 40.3549L79.5612 37.4579C79.763 37.3861 79.8119 37.1347 79.659 36.9911L79.6713 36.9851ZM38.1248 15.3357L25.3319 29.8863C25.2279 30.006 25.3747 30.1736 25.5092 30.0958L36.4982 23.9069L35.8561 27.2288L28.2488 34.3096C28.1326 34.4173 28.2611 34.5969 28.4017 34.537L35.0061 31.6999L32.5478 44.6105L7.37164 35.782L40.0083 5.46569L38.1187 15.3297L38.1248 15.3357Z" fill="#F5F5F5"/>
</svg>
